<?xml version="1.0" encoding="UTF-8"?>
<svg width="851.51" height="722.88" version="1.1" viewBox="0 0 851.51 722.88" xml:space="preserve" xmlns="http://www.w3.org/2000/svg" xmlns:cc="http://creativecommons.org/ns#" xmlns:dc="http://purl.org/dc/elements/1.1/" xmlns:rdf="http://www.w3.org/1999/02/22-rdf-syntax-ns#"><metadata><rdf:RDF><cc:Work rdf:about=""><dc:format>image/svg+xml</dc:format><dc:type rdf:resource="http://purl.org/dc/dcmitype/StillImage"/><dc:title/></cc:Work></rdf:RDF></metadata><ellipse cx="467.04" cy="361.44" rx="362.76" ry="361.44" fill="#fff" stroke-width="1.7721"/><g transform="matrix(1.3333 0 0 -1.3333 -143.95 748.01)"><g transform="scale(1,-1)"><path d="m466.33-477.48-2.0176 8.2104 8.1846-2.1074s-5.8467 6.1016-5.8467 6.1016l8.1406 2.2705-8.1172 2.3564 5.918 6.0347-8.208-2.0112 2.1064 8.1846-6.1035-5.8472-2.2666 8.1382s-2.3652-8.1138-2.3652-8.1138l-6.0293 5.918 2.0117-8.2119-8.1816 2.1094s5.8486-6.104 5.8486-6.104l-8.1455-2.2686 8.1152-2.3579-5.9111-6.0347 8.2012 2.0122-2.0986-8.1856 6.0957 5.8472s2.2676-8.1382 2.2676-8.1382 2.3604 8.1138 2.3604 8.1138l6.041-5.9165z" fill="#244ba6"/><g fill="#00abbb"><path d="m522.85-183.5c-3.9932-0.89355-7.9697-1.7959-11.93-2.706v3.583h3.1279c2.9277 0 5.4268-0.17871 7.4346-0.53515 0.48437-0.084 0.93457-0.2041 1.3672-0.3418z"/><path d="m434.55-173.8c3.0352 0.89649 6.082 1.7871 9.1455 2.668v-29.249z"/><path d="m510.92-159.44v5.8838c3.0889 0.72949 6.1894 1.4492 9.3008 2.1621-3.1504-4.1387-5.5791-7.3272-6.126-8.0459z"/><path d="m543.34-167.11c2.8018 3.5273 8.2334 10.366 12.245 15.415 1.1191-3.3115 4.2119-12.459 7.8291-23.168-3.2236-0.65332-6.4394-1.3135-9.6465-1.9785-0.0781 0.11328-0.1455 0.23535-0.2246 0.34863-2.6836 3.7207-6.1192 6.8506-10.203 9.3828z"/><path d="m582.38-144.7c-0.34277 1.1123-1.0146 3.3106-1.7832 5.8125 8.6562 1.5967 18.612 3.3633 29.317 5.208-1.3135-4.2793-2.8076-9.1602-3.3799-11.021h-24.154z"/><path d="m473.18-195.29v32.293c2.7461 0.72656 5.5 1.4482 8.2646 2.1621v-32.4c-2.7646-0.68164-5.5195-1.3662-8.2646-2.0547z"/><path d="m590.01-169.71c-0.19726 0.63086-0.38476 1.2363-0.56347 1.8154h10.025c-0.0176-0.0606-0.0381-0.12207-0.0547-0.18066-3.3057-0.56055-6.4531-1.1064-9.4072-1.6348z"/></g><g fill="#244ba6"><path d="m356.16-223.49c0.0811-0.0684 0.16065-0.1377 0.2417-0.20606h-0.31201l0.0703 0.20606z"/><path d="m269.25-450.55-1.9263 3.3804c20.566 30.801 35.662 67.993 40.363 110.11 3.0283 27.097 1.1836 56.271-4.2417 85.277 0.1958 0.0771 0.3872 0.15234 0.58349 0.22852 18.152 7.0625 37.687 14.052 58.059 20.774l2.0425 0.66504c29.908-24.068 63.76-42.6 100-52.946 28.451-8.1191 57.32-11.193 83.924-9.4023l1.8057-3.165c-116.08-2.5317-217.88-59.889-280.61-154.92z"/><path d="m258.71-129.57 20.615-0.1123c15.194-26.886 34.144-52.117 56-74.324-13.407-5.2139-26.585-10.647-39.201-16.158-8.9985 32.6-22.077 63.913-37.414 90.595z"/></g><g fill="#00abbb"><path d="m125.12-392.17c11.028-56.627 136.2-82.877 306.93-72.542v-0.38575c-179.04-12.085-311.63 15.333-323.26 75.112-9.6196 49.394 65.622 112.91 188.24 166.56 13.096 5.7305 26.731 11.35 40.864 16.825 9.0146 3.4932 18.223 6.9307 27.629 10.3l-9.3564-27.19-0.0703-0.20606h16.941c-4.0376-1.291-8.0293-2.5928-11.993-3.9014-20.449-6.748-39.903-13.706-58.225-20.834-116.09-45.16-186.79-97.01-177.7-143.74z"/><path d="m746.61-112.66c-23.344-2.7656-65.363-9.1631-104.75-15.645l-6.0898-18.018c1.7656 3.1133 3.8691 5.9482 6.332 8.4766 8.6445 8.8789 20.396 13.383 34.927 13.383 4.6084 0 8.1621-0.23731 10.865-0.72364-8e-3 9.8e-4 4.333-0.9375 4.333-0.9375l2.6387-0.56933-0.0947-2.6758v-22.629l-6.4287 2.4883c-2.334 0.83691-4.8545 1.2656-7.4736 1.2656-2.5078 0-5.0732-0.44922-7.6201-1.3359-2.4424-0.85254-4.6963-2.2646-6.7022-4.1953-1.2471-1.2022-2.3633-2.6641-3.3408-4.3574 32.573 4.7812 65.053 9.2168 83.402 11.517v33.956z"/><path d="m408.12-181.91c2.8965-9.0244 6.4111-19.976 9.1172-28.403-9.7705-2.8018-19.371-5.6543-28.787-8.5498 2.3809 7.415 7.0664 22.012 10.959 34.145 2.8887 0.94239 5.791 1.8799 8.7109 2.8086z"/></g><path d="m663.8-198.27c2.4854-2.5596 5.1074-4.3564 7.8604-5.3975 2.75-1.0352 5.7852-1.5537 9.0859-1.5537 2.7734 0 5.4336 0.4541 7.9814 1.373 0.94043 0.33886 1.8242 0.72754 2.7022 1.1152v-18.167c-1.4873-0.3125-3.0029-0.58887-4.5537-0.80664-2.8984-0.40625-6.1582-0.61328-9.7881-0.61328-13.659 0-24.511 4.2871-32.56 12.864-8.0508 8.5723-12.075 20.068-12.075 34.485 0 14.951 4.0107 26.553 12.044 34.795 8.0303 8.25 18.878 12.375 32.532 12.375 4.3604 0 7.7832-0.22363 10.269-0.6709 1.3262-0.23633 2.7031-0.54297 4.1318-0.89355v-17.754c-0.61914 0.25684-1.2646 0.50488-1.9356 0.75098-2.7295 0.97851-5.6055 1.4697-8.625 1.4697-2.8945 0-5.8018-0.50781-8.7188-1.5205-2.917-1.0176-5.5576-2.668-7.9219-4.9453-2.4473-2.3574-4.4268-5.457-5.9346-9.3018-1.5088-3.8408-2.2607-8.5908-2.2607-14.24 0-5.3682 0.71777-10.022 2.167-13.971 1.4502-3.9434 3.3135-7.0752 5.5996-9.3936zm-78.893 33.723 9.5449-30.746 9.5576 30.746h-19.103zm-54.023-21.905c-0.7041 1.5938-1.7832 2.96-3.2324 4.1055-1.5264 1.2676-3.3945 2.0957-5.5928 2.4785-2.1982 0.38965-4.8672 0.58594-8.0088 0.58594h-6.4688v-24.565h7.5606c2.5762 0 4.7305 0.084 6.4648 0.24609 1.7305 0.16895 3.3086 0.55078 4.7188 1.165 2.0098 0.89844 3.4531 2.1748 4.3164 3.8281 0.86816 1.6533 1.3037 3.626 1.3037 5.9072 0 2.5742-0.35547 4.6621-1.0615 6.249zm51.442-33.902-25.537 75.551-18.501-23.294c5.2412-2.5615 9.4219-6.0088 12.546-10.345 3.123-4.3359 4.6914-9.9814 4.6914-16.941 0-4.9277-0.95898-8.9854-2.8682-12.179-1.9141-3.1904-4.4971-5.832-7.75-7.9072-3.1758-1.9941-6.6367-3.3047-10.381-3.9404-3.7422-0.62793-8.1328-0.94434-13.18-0.94434h-36.563v90.783h22.798v-33.204h8.1719l25.282 33.204h33.216l5.6641-18.47h29.096l5.6602 18.47h23.233l-30.688-90.783h-24.89zm-178.11 61.554s-19.754-61.554-19.754-61.554h-23.688s31.234 90.783 31.234 90.783h23.794s31.232-90.783 31.232-90.783h-23.063zm42.822 29.022h22.797v-90.364h-22.797z" fill="#244ba6"/></g></g></svg>
